<mxfile host="app.diagrams.net" modified="2023-12-23T21:50:30.489Z" agent="Mozilla/5.0 (Windows NT 10.0; Win64; x64) AppleWebKit/537.36 (KHTML, like Gecko) Chrome/120.0.0.0 Safari/537.36" etag="zjh1XluATz3Qvw7Ar0h5" version="22.1.11" type="device">
  <diagram name="Sivu-1" id="8grGyplGFOCnzHCEzF8w">
    <mxGraphModel dx="1390" dy="523" grid="1" gridSize="10" guides="1" tooltips="1" connect="1" arrows="1" fold="1" page="1" pageScale="1" pageWidth="827" pageHeight="1169" math="0" shadow="0">
      <root>
        <mxCell id="0" />
        <mxCell id="1" parent="0" />
        <mxCell id="me6OIRC3ZiVHuyxm6KDw-1" value="Pesuvuorot" style="rounded=1;whiteSpace=wrap;html=1;fontSize=8;" vertex="1" parent="1">
          <mxGeometry x="120" y="160" width="80" height="40" as="geometry" />
        </mxCell>
        <mxCell id="me6OIRC3ZiVHuyxm6KDw-2" value="Saunavuorot" style="rounded=1;whiteSpace=wrap;html=1;fontSize=8;" vertex="1" parent="1">
          <mxGeometry x="360" y="160" width="80" height="40" as="geometry" />
        </mxCell>
        <mxCell id="me6OIRC3ZiVHuyxm6KDw-3" value="Kerhovuorot" style="rounded=1;whiteSpace=wrap;html=1;fontSize=8;" vertex="1" parent="1">
          <mxGeometry x="600" y="160" width="80" height="40" as="geometry" />
        </mxCell>
        <mxCell id="me6OIRC3ZiVHuyxm6KDw-4" value="Saunavuorot &lt;br&gt;A-B" style="rounded=1;whiteSpace=wrap;html=1;fontSize=8;" vertex="1" parent="1">
          <mxGeometry x="310" y="220" width="80" height="40" as="geometry" />
        </mxCell>
        <mxCell id="me6OIRC3ZiVHuyxm6KDw-6" value="Saunavuorot &lt;br&gt;C-D" style="rounded=1;whiteSpace=wrap;html=1;fontSize=8;" vertex="1" parent="1">
          <mxGeometry x="410" y="220" width="80" height="40" as="geometry" />
        </mxCell>
        <mxCell id="me6OIRC3ZiVHuyxm6KDw-9" value="Pesutupa&lt;br style=&quot;font-size: 8px;&quot;&gt;A-B" style="rounded=1;whiteSpace=wrap;html=1;fontSize=8;" vertex="1" parent="1">
          <mxGeometry x="70" y="220" width="80" height="40" as="geometry" />
        </mxCell>
        <mxCell id="me6OIRC3ZiVHuyxm6KDw-10" value="Pesutupa&lt;br style=&quot;font-size: 8px;&quot;&gt;C-D" style="rounded=1;whiteSpace=wrap;html=1;fontSize=8;" vertex="1" parent="1">
          <mxGeometry x="170" y="220" width="80" height="40" as="geometry" />
        </mxCell>
        <mxCell id="me6OIRC3ZiVHuyxm6KDw-14" value="&lt;font style=&quot;font-size: 8px;&quot;&gt;Seuraava päivä&lt;/font&gt;" style="rounded=1;whiteSpace=wrap;html=1;fontSize=8;" vertex="1" parent="1">
          <mxGeometry x="210" y="280" width="40" height="40" as="geometry" />
        </mxCell>
        <mxCell id="me6OIRC3ZiVHuyxm6KDw-15" value="&lt;font style=&quot;font-size: 8px;&quot;&gt;Seuraava päivä&lt;/font&gt;" style="rounded=1;whiteSpace=wrap;html=1;fontSize=8;" vertex="1" parent="1">
          <mxGeometry x="450" y="280" width="40" height="40" as="geometry" />
        </mxCell>
        <mxCell id="me6OIRC3ZiVHuyxm6KDw-16" value="&lt;font style=&quot;font-size: 8px;&quot;&gt;Seuraava päivä&lt;/font&gt;" style="rounded=1;whiteSpace=wrap;html=1;fontSize=8;" vertex="1" parent="1">
          <mxGeometry x="690" y="280" width="40" height="40" as="geometry" />
        </mxCell>
        <mxCell id="me6OIRC3ZiVHuyxm6KDw-17" value="&lt;font style=&quot;font-size: 8px;&quot;&gt;Edellinen päivä&lt;/font&gt;" style="rounded=1;whiteSpace=wrap;html=1;fontSize=8;" vertex="1" parent="1">
          <mxGeometry x="70" y="280" width="40" height="40" as="geometry" />
        </mxCell>
        <mxCell id="me6OIRC3ZiVHuyxm6KDw-18" value="&lt;font style=&quot;font-size: 8px;&quot;&gt;Edellinen päivä&lt;/font&gt;" style="rounded=1;whiteSpace=wrap;html=1;fontSize=8;" vertex="1" parent="1">
          <mxGeometry x="310" y="280" width="40" height="40" as="geometry" />
        </mxCell>
        <mxCell id="me6OIRC3ZiVHuyxm6KDw-19" value="&lt;font style=&quot;font-size: 8px;&quot;&gt;Edellinen päivä&lt;/font&gt;" style="rounded=1;whiteSpace=wrap;html=1;fontSize=8;" vertex="1" parent="1">
          <mxGeometry x="550" y="280" width="40" height="40" as="geometry" />
        </mxCell>
        <mxCell id="me6OIRC3ZiVHuyxm6KDw-20" value="Pesukone 1" style="rounded=1;whiteSpace=wrap;html=1;fontSize=8;" vertex="1" parent="1">
          <mxGeometry x="60" y="350" width="40" height="40" as="geometry" />
        </mxCell>
        <mxCell id="me6OIRC3ZiVHuyxm6KDw-23" value="Pesukone 2" style="rounded=1;whiteSpace=wrap;html=1;fontSize=8;" vertex="1" parent="1">
          <mxGeometry x="110" y="350" width="40" height="40" as="geometry" />
        </mxCell>
        <mxCell id="me6OIRC3ZiVHuyxm6KDw-24" value="Kuivaus-rumpu 1" style="rounded=1;whiteSpace=wrap;html=1;fontSize=8;" vertex="1" parent="1">
          <mxGeometry x="170" y="350" width="40" height="40" as="geometry" />
        </mxCell>
        <mxCell id="me6OIRC3ZiVHuyxm6KDw-26" value="Kuivaus-rumpu 2" style="rounded=1;whiteSpace=wrap;html=1;fontSize=8;direction=south;" vertex="1" parent="1">
          <mxGeometry x="220" y="350" width="40" height="40" as="geometry" />
        </mxCell>
        <mxCell id="me6OIRC3ZiVHuyxm6KDw-27" value="Sauna 1" style="rounded=1;whiteSpace=wrap;html=1;fontSize=8;direction=south;" vertex="1" parent="1">
          <mxGeometry x="300" y="350" width="40" height="40" as="geometry" />
        </mxCell>
        <mxCell id="me6OIRC3ZiVHuyxm6KDw-32" value="" style="rounded=1;html=1;textOpacity=0;labelBackgroundColor=none;opacity=80;fillColor=#f8cecc;strokeColor=#b85450;" vertex="1" parent="1">
          <mxGeometry x="345" y="345" width="151" height="49" as="geometry" />
        </mxCell>
        <mxCell id="me6OIRC3ZiVHuyxm6KDw-28" value="Sauna n" style="rounded=1;whiteSpace=wrap;html=1;fontSize=8;direction=south;" vertex="1" parent="1">
          <mxGeometry x="350" y="350" width="40" height="40" as="geometry" />
        </mxCell>
        <mxCell id="me6OIRC3ZiVHuyxm6KDw-29" value="Sauna n" style="rounded=1;whiteSpace=wrap;html=1;fontSize=8;direction=south;" vertex="1" parent="1">
          <mxGeometry x="400" y="350" width="40" height="40" as="geometry" />
        </mxCell>
        <mxCell id="me6OIRC3ZiVHuyxm6KDw-30" value="Sauna n" style="rounded=1;whiteSpace=wrap;html=1;fontSize=8;direction=south;" vertex="1" parent="1">
          <mxGeometry x="450" y="350" width="40" height="40" as="geometry" />
        </mxCell>
      </root>
    </mxGraphModel>
  </diagram>
</mxfile>
